<svg width="25" height="26" viewBox="0 0 25 26" fill="none" xmlns="http://www.w3.org/2000/svg"><path d="M8.281 8.234c-4.297 0-7.793 3.496-7.793 7.793 0 4.297 3.496 7.793 7.793 7.793 4.297 0 7.793-3.496 7.793-7.793-.02-4.316-3.496-7.793-7.793-7.793z" fill="#C0A3FF"/><path d="M16.719 2.59c-2.735 0-5.137 1.426-6.524 3.555a9.93 9.93 0 012.266.742 5.495 5.495 0 014.258-2.012 5.501 5.501 0 015.508 5.508c0 2.48-1.66 4.59-3.907 5.273 0 .117.02.235.02.352 0 .683-.078 1.367-.195 2.012a7.781 7.781 0 006.367-7.657c0-4.277-3.496-7.773-7.793-7.773z" fill="#C0A3FF"/></svg>